<?xml version="1.0" encoding="UTF-8" standalone="no"?>
<!-- Created with Inkscape (http://www.inkscape.org/) -->

<svg
   xmlns:svg="http://www.w3.org/2000/svg"
   xmlns="http://www.w3.org/2000/svg"
   xmlns:xlink="http://www.w3.org/1999/xlink"
   version="1.1"
   width="40"
   height="40"
   id="svg3757">
  <defs
     id="defs3759">
    <linearGradient
       x1="1264.25"
       y1="146.625"
       x2="1257"
       y2="143.25"
       id="linearGradient4165"
       xlink:href="#linearGradient4159"
       gradientUnits="userSpaceOnUse"
       gradientTransform="translate(-1234.073,875.31061)" />
    <linearGradient
       id="linearGradient4159">
      <stop
         id="stop4161"
         style="stop-color:#ff3333;stop-opacity:1"
         offset="0" />
      <stop
         id="stop4163"
         style="stop-color:#ff3333;stop-opacity:0"
         offset="1" />
    </linearGradient>
    <linearGradient
       x1="1246.6293"
       y1="162.97089"
       x2="1253.5236"
       y2="170.66068"
       id="linearGradient4085"
       xlink:href="#linearGradient4079"
       gradientUnits="userSpaceOnUse"
       gradientTransform="translate(-1234.073,875.31061)" />
    <linearGradient
       id="linearGradient4079">
      <stop
         id="stop4081"
         style="stop-color:#ff3333;stop-opacity:1"
         offset="0" />
      <stop
         id="stop4083"
         style="stop-color:#ff3333;stop-opacity:0"
         offset="1" />
    </linearGradient>
    <filter
       x="-0.15833779"
       y="-0.12142303"
       width="1.3166755"
       height="1.2428461"
       color-interpolation-filters="sRGB"
       id="filter4075">
      <feGaussianBlur
         stdDeviation="0.47450039"
         id="feGaussianBlur4077" />
    </filter>
    <linearGradient
       x1="1247.2479"
       y1="148.82875"
       x2="1251.1371"
       y2="157.04887"
       id="linearGradient4063"
       xlink:href="#linearGradient4057"
       gradientUnits="userSpaceOnUse"
       gradientTransform="translate(-1234.073,875.31061)" />
    <linearGradient
       id="linearGradient4057">
      <stop
         id="stop4059"
         style="stop-color:#ff3333;stop-opacity:1"
         offset="0" />
      <stop
         id="stop4061"
         style="stop-color:#ff3333;stop-opacity:0"
         offset="1" />
    </linearGradient>
    <filter
       x="-0.15642899"
       y="-0.086034849"
       width="1.312858"
       height="1.1720697"
       color-interpolation-filters="sRGB"
       id="filter4053">
      <feGaussianBlur
         stdDeviation="0.31685346"
         id="feGaussianBlur4055" />
    </filter>
    <linearGradient
       x1="1250.375"
       y1="137"
       x2="1260.25"
       y2="141.125"
       id="linearGradient3754-5"
       xlink:href="#linearGradient3748-2"
       gradientUnits="userSpaceOnUse"
       gradientTransform="translate(-1234.073,874.43561)" />
    <linearGradient
       id="linearGradient3748-2">
      <stop
         id="stop3750-3"
         style="stop-color:#ffffff;stop-opacity:1"
         offset="0" />
      <stop
         id="stop3752-6"
         style="stop-color:#ffffff;stop-opacity:0"
         offset="1" />
    </linearGradient>
    <linearGradient
       x1="1241.4375"
       y1="159.25"
       x2="1250.1875"
       y2="165.3125"
       id="linearGradient3738-2"
       xlink:href="#linearGradient3732-6"
       gradientUnits="userSpaceOnUse"
       gradientTransform="translate(-1234.073,875.31061)" />
    <linearGradient
       id="linearGradient3732-6">
      <stop
         id="stop3734-2"
         style="stop-color:#000000;stop-opacity:1"
         offset="0" />
      <stop
         id="stop3736-4"
         style="stop-color:#000000;stop-opacity:0"
         offset="1" />
    </linearGradient>
    <linearGradient
       x1="1242.5625"
       y1="152.5625"
       x2="1247.4375"
       y2="155.1875"
       id="linearGradient3728-4"
       xlink:href="#linearGradient3720-2"
       gradientUnits="userSpaceOnUse"
       gradientTransform="translate(-1234.073,875.31061)" />
    <linearGradient
       id="linearGradient3720-2">
      <stop
         id="stop3722-7"
         style="stop-color:#000000;stop-opacity:1"
         offset="0" />
      <stop
         id="stop3724-0"
         style="stop-color:#000000;stop-opacity:0"
         offset="1" />
    </linearGradient>
    <linearGradient
       x1="1256.5625"
       y1="142.75"
       x2="1263.25"
       y2="146.8125"
       id="linearGradient4119"
       xlink:href="#linearGradient4113"
       gradientUnits="userSpaceOnUse" />
    <linearGradient
       id="linearGradient4113">
      <stop
         id="stop4115"
         style="stop-color:#000000;stop-opacity:1"
         offset="0" />
      <stop
         id="stop4117"
         style="stop-color:#131313;stop-opacity:1"
         offset="1" />
    </linearGradient>
    <linearGradient
       x1="1256.5625"
       y1="142.75"
       x2="1263.25"
       y2="146.8125"
       id="linearGradient3824"
       xlink:href="#linearGradient4113"
       gradientUnits="userSpaceOnUse"
       gradientTransform="translate(-1234.073,875.31061)" />
  </defs>
  <g
     transform="translate(0,-1012.3622)"
     id="layer1">
    <path
       d="m 15.782424,1021.7087 c -0.9723,-0.9723 0.2208,-8.2643 2.033,-10.1205 1.812,-1.8561 16.572797,-1.1143 16.572797,-1.1143 0,0 -5.580097,15.5407 -8.706297,15.2565 -2.4306,-0.221 -9.9879,-3.9775 -9.8995,-4.0217 z"
       id="path3742"
       style="color:#000000;fill:url(#linearGradient3824);fill-opacity:1;fill-rule:nonzero;stroke:none;stroke-width:1;marker:none;visibility:visible;display:inline;overflow:visible;enable-background:accumulate" />
    <path
       d="m 7.9895243,1048.3106 c 1.125,-3.25 4.3749997,-10.25 5.6249997,-11.75 -0.8125,-0.5625 -1.5625,-2.0625 -0.6875,-3.6875 0.875,-1.625 2,-1.3125 2.875,-1.125 -0.3125,-0.375 -2.75,-0.9375 -3.875,1.4375 -0.6608,1.3951 -0.1875,2.8125 0.75,3.5 -1.4375,1.75 -4.4999997,9.375 -4.6874997,11.625 z"
       id="path3712"
       style="color:#000000;fill:#000000;fill-opacity:1;fill-rule:nonzero;stroke:none;stroke-width:1;marker:none;visibility:visible;display:inline;overflow:visible;enable-background:accumulate" />
    <path
       d="m 10.739524,1049.1231 c 1.25,-2 7,-10.8125 12.125,-11.3125 0.375,-7.3125 2.4375,-10.875 2.4375,-10.875 l -0.625,-0.625 c 0,0 -3,7.1875 -2.5625,10.8125 -4.6875,1.25 -10.375,8 -11.375,11.25 l 0,0.75 z"
       id="path3714"
       style="color:#000000;fill:#000000;fill-opacity:1;fill-rule:nonzero;stroke:none;stroke-width:1;marker:none;visibility:visible;display:inline;overflow:visible;enable-background:accumulate" />
    <path
       d="m 14.989524,1022.9981 c 3.6875,0.25 8.8125,3 10.0625,4 0.8125,-0.8125 0.4375,-1.25 0.4375,-1.25 -1.3125,-1.75 -7.7254,-4.7122 -9.75,-4.25 -0.664,0.3092 -0.5625,1.5625 -0.7495,1.5 l -5e-4,0 z"
       id="path3716"
       style="color:#000000;fill:#000000;fill-opacity:1;fill-rule:nonzero;stroke:none;stroke-width:1;marker:none;visibility:visible;display:inline;overflow:visible;enable-background:accumulate" />
    <path
       d="m 14.802024,1023.0606 c -2.75,3.625 -4.1468,4.5066 -4.1875,4.8687 -0.5777,5.1373 -3.4955997,16.8277 -4.3080997,18.2652 1.0625,0.875 0.8706,0.1786 0.8706,0.1786 0,0 5.3124997,-12.875 5.7499997,-15.9375 0.4375,-3.0625 3.625,-4.1875 4,-6.125 0.375,-1.9375 -2.125,-1.25 -2.125,-1.25 z"
       id="path3718"
       style="opacity:0.53363229;color:#000000;fill:url(#linearGradient3728-4);fill-opacity:1;fill-rule:nonzero;stroke:none;stroke-width:1;marker:none;visibility:visible;display:inline;overflow:visible;enable-background:accumulate" />
    <path
       d="m 8.8020243,1048.3106 c -0.3167,-0.1583 3.7127997,-9.9248 5.4999997,-11.0625 0.75,0.062 2.375,0 3.1875,-0.875 0.8125,-0.875 1.1875,-3.125 0.125,-3.875 -1.0625,-0.75 2.6875,-8.25 2.6875,-8.25 1.6943,1.1601 5.5143,-1.2785 0.4375,10.5625 l -6.75,7.6875 -3.1875,6.625 -1.9999997,-0.8125 z"
       id="path3730"
       style="opacity:0.53363229;color:#000000;fill:url(#linearGradient3738-2);fill-opacity:1;fill-rule:nonzero;stroke:none;stroke-width:1;marker:none;visibility:visible;display:inline;overflow:visible;enable-background:accumulate" />
    <path
       d="m 20.853824,1010.2506 7.2866,-0.014 c 0,0 -4.5884,4.8245 -4.9634,7.6995 -0.375,2.875 -0.875,2.75 -2.875,2.125 -2,-0.625 -3.875,-0.875 -2,-4.375 1.875,-3.5 2.6768,-5.435 2.5518,-5.435 z"
       id="path3746"
       style="color:#000000;fill:url(#linearGradient3754-5);fill-opacity:1;fill-rule:nonzero;stroke:none;stroke-width:1;marker:none;visibility:visible;display:inline;overflow:visible;enable-background:accumulate" />
    <path
       d="m 5.5520243,1048.0606 2.2616,0.7999 2.7383997,0.4501 -3.1249997,4.0297 -7.49999998,-0.03 0.029,-2.5442 5.59599998,-2.7058 z"
       id="path4007"
       style="color:#000000;fill:#ff3333;fill-opacity:1;fill-rule:nonzero;stroke:none;stroke-width:1;marker:none;visibility:visible;display:inline;overflow:visible;enable-background:accumulate" />
    <path
       d="m 9.9046241,1033.5085 c 1.1489999,-1.2374 2.7399999,-3.0936 2.7399999,-3.0936 0.4999,-2.2097 3.0936,-4.6845 4.1543,-6.8942 l -1.8562,-0.2652 -4.1542,4.8613 -0.8838999,5.3917 z"
       id="path4043"
       style="opacity:0.11210764;color:#000000;fill:url(#linearGradient4063);fill-opacity:1;fill-rule:nonzero;stroke:none;stroke-width:1;marker:none;visibility:visible;display:inline;overflow:visible;filter:url(#filter4053);enable-background:accumulate" />
    <path
       d="m 9.0207243,1048.6229 c 1.0606997,-2.1213 3.8006997,-7.071 4.4193997,-8.662 0.6187,-1.591 7.955,-2.4749 8.2202,-3.0936 0.2651,-0.6187 -6.6292,4.773 -7.2479,5.7452 -0.6187,0.9723 -4.0659,6.4524 -4.0659,6.4524 l -1.3257997,-0.442 z"
       id="path4065"
       style="opacity:0.14798207;color:#000000;fill:url(#linearGradient4085);fill-opacity:1;fill-rule:nonzero;stroke:none;stroke-width:1;marker:none;visibility:visible;display:inline;overflow:visible;filter:url(#filter4075);enable-background:accumulate" />
    <path
       d="m 21.552024,1022.4356 c 2.5625,0.875 3.1053,2.9101 3.9375,3.1875 2.25,0.75 6.937497,-9.0625 8.624997,-15.1875 -2.749997,0.062 -5.374997,0 -5.374997,0 -5.5416,5.8167 -4.4891,6.971 -7.1875,12 z"
       id="path4111"
       style="opacity:0.10762329;color:#000000;fill:url(#linearGradient4165);fill-opacity:1;fill-rule:nonzero;stroke:none;stroke-width:1;marker:none;visibility:visible;display:inline;overflow:visible;enable-background:accumulate" />
    <path
       d="m 16.622124,1021.7087 c 3.182,0.6187 6.1872,1.8561 8.0875,3.2704 -0.9281,-2.033 -7.2478,-3.9775 -8.0875,-3.2704 z"
       id="path3744"
       style="color:#000000;fill:#ffffff;fill-opacity:1;fill-rule:nonzero;stroke:none;stroke-width:1;marker:none;visibility:visible;display:inline;overflow:visible;enable-background:accumulate" />
  </g>
</svg>
